<svg width="24" height="24" viewBox="0 0 24 24" fill="none" xmlns="http://www.w3.org/2000/svg">
<path d="M7 20C6.44772 20 6 19.5523 6 19V5C6 4.44772 6.44772 4 7 4H12.7468C13.9865 4 15.0205 4.17448 15.8487 4.52344C16.677 4.8724 17.2996 5.35678 17.7165 5.97656C18.1333 6.59115 18.3418 7.29949 18.3418 8.10156C18.3418 8.72656 18.2101 9.27603 17.9468 9.75C17.6835 10.2188 17.3215 10.6042 16.8608 10.9063C16.4055 11.2031 15.8844 11.4141 15.2975 11.5391V11.6953C15.9392 11.7214 16.5399 11.8932 17.0994 12.2109C17.6643 12.5286 18.1224 12.9739 18.4734 13.5469C18.8245 14.1146 19 14.7917 19 15.5781C19 16.4271 18.7779 17.1849 18.3335 17.8516C17.8947 18.513 17.2447 19.0365 16.3835 19.4219C15.5224 19.8073 14.461 20 13.1994 20H7ZM9.56265 17.2344H12.4671C13.4599 17.2344 14.184 17.0547 14.6392 16.6953C15.0945 16.3307 15.3221 15.8464 15.3221 15.2422C15.3221 14.7995 15.2097 14.4089 14.9848 14.0703C14.7599 13.7318 14.439 13.4662 14.0221 13.2734C13.6107 13.0807 13.1198 12.9844 12.5494 12.9844H9.56265V17.2344ZM9.56265 10.6953H12.2038C12.692 10.6953 13.1253 10.6146 13.5038 10.4531C13.8878 10.2864 14.1895 10.0521 14.4088 9.75C14.6338 9.44792 14.7462 9.08593 14.7462 8.66406C14.7462 8.08594 14.5295 7.61979 14.0962 7.26563C13.6683 6.91145 13.0595 6.73437 12.2696 6.73437H9.56265V10.6953Z" fill="black"/>
</svg>
