<svg width="20" height="20" viewBox="0 0 20 20" fill="none" xmlns="http://www.w3.org/2000/svg">
<path d="M5 18C4.44772 18 4 17.5523 4 17V3C4 2.44772 4.44772 2 5 2H10.7468C11.9865 2 13.0205 2.17448 13.8487 2.52344C14.677 2.8724 15.2996 3.35678 15.7165 3.97656C16.1333 4.59115 16.3418 5.29949 16.3418 6.10156C16.3418 6.72656 16.2101 7.27603 15.9468 7.75C15.6835 8.21876 15.3215 8.60417 14.8608 8.90626C14.4055 9.20312 13.8844 9.41406 13.2975 9.53906V9.69531C13.9392 9.72136 14.5399 9.89322 15.0994 10.2109C15.6643 10.5286 16.1224 10.9739 16.4734 11.5469C16.8245 12.1146 17 12.7917 17 13.5781C17 14.4271 16.7779 15.1849 16.3335 15.8516C15.8947 16.513 15.2447 17.0365 14.3835 17.4219C13.5224 17.8073 12.461 18 11.1994 18H5ZM7.56265 15.2344H10.4671C11.4599 15.2344 12.184 15.0547 12.6392 14.6953C13.0945 14.3307 13.3221 13.8464 13.3221 13.2422C13.3221 12.7995 13.2097 12.4089 12.9848 12.0703C12.7599 11.7318 12.439 11.4662 12.0221 11.2734C11.6107 11.0807 11.1198 10.9844 10.5494 10.9844H7.56265V15.2344ZM7.56265 8.69532H10.2038C10.692 8.69532 11.1253 8.61458 11.5038 8.45312C11.8878 8.28645 12.1895 8.05208 12.4088 7.75C12.6338 7.44792 12.7462 7.08593 12.7462 6.66406C12.7462 6.08594 12.5295 5.61979 12.0962 5.26563C11.6683 4.91145 11.0595 4.73437 10.2696 4.73437H7.56265V8.69532Z" fill="white"/>
</svg>
