<svg width="20" height="20" viewBox="0 0 20 20" fill="none" xmlns="http://www.w3.org/2000/svg">
<path d="M12.9166 7.49998L13.0599 7.64331C14.1707 8.75414 15 9.30998 15 9.99998C15 10.69 14.1707 11.2458 13.0599 12.3566L12.9166 12.5M11.0782 5.97498L9.9999 9.99998L8.92157 14.025M7.08323 7.49998L6.9399 7.64331C5.82907 8.75414 5 9.30998 5 9.99998C5 10.69 5.82907 11.2458 6.9399 12.3566L7.08323 12.5" stroke="white" stroke-linecap="round"/>
<path d="M18.1128 15C18.2026 14.517 18.2559 13.9664 18.2875 13.3334C18.3334 12.4122 18.3334 11.3164 18.3334 10C18.3334 6.07169 18.3334 4.10835 17.1126 2.88669C15.8926 1.66669 13.9284 1.66669 10.0001 1.66669C7.77891 1.66669 6.18596 1.66669 5.00008 1.88722M15.0001 18.1128C14.5171 18.2026 13.9665 18.2559 13.3334 18.2874C12.4122 18.3334 11.3164 18.3334 10.0001 18.3334C6.07175 18.3334 4.10758 18.3334 2.88675 17.1125C1.66675 15.8934 1.66675 13.9284 1.66675 10C1.66675 7.77907 1.66675 6.18594 1.88722 5.00002" stroke="white" stroke-linecap="round"/>
</svg>
