<svg width="24" height="24" viewBox="0 0 24 24" fill="none" xmlns="http://www.w3.org/2000/svg">
<path d="M15.5 8.99998L15.672 9.17198C17.005 10.505 18.0001 11.172 18.0001 12C18.0001 12.828 17.005 13.495 15.672 14.828L15.5 15M13.294 7.16998L12 12L10.706 16.83M8.5 8.99998L8.328 9.17198C6.995 10.505 6.00012 11.172 6.00012 12C6.00012 12.828 6.995 13.495 8.328 14.828L8.5 15" stroke="black" stroke-width="1.5" stroke-linecap="round"/>
<path d="M21.7352 18C21.8431 17.4204 21.907 16.7597 21.9449 16C22 14.8946 22 13.5796 22 12C22 7.286 22 4.93 20.535 3.464C19.071 2 16.714 2 12 2C9.33459 2 7.42305 2 6 2.26464M18 21.7353C17.4204 21.8431 16.7597 21.907 16 21.9449C14.8945 22 13.5795 22 12 22C7.286 22 4.929 22 3.464 20.535C2 19.072 2 16.714 2 12C2 9.33486 2 7.4231 2.26457 6" stroke="black" stroke-width="1.5" stroke-linecap="round"/>
</svg>
