<svg width="24" height="24" viewBox="0 0 24 24" fill="none" xmlns="http://www.w3.org/2000/svg">
<path d="M9 12C4.5 12 3.5 15 2 15" stroke="black" stroke-width="1.5" stroke-linecap="round" stroke-linejoin="round"/>
<path d="M9 12C13.5 12 14.7301 15 17.5 15" stroke="black" stroke-width="1.5" stroke-linecap="round" stroke-linejoin="round"/>
<path d="M22 13.5C16.75 13.5 16.5 18 13.5 18" stroke="black" stroke-width="1.5" stroke-linecap="round" stroke-linejoin="round"/>
<path d="M16.5001 10.5002C18.157 10.5002 19.5002 9.15704 19.5002 7.50012C19.5002 5.8432 18.157 4.5 16.5001 4.5C14.8432 4.5 13.5 5.8432 13.5 7.50012C13.5 9.15704 14.8432 10.5002 16.5001 10.5002Z" stroke="black" stroke-width="1.5" stroke-linecap="round" stroke-linejoin="round"/>
<path d="M21.7352 18C21.8431 17.4204 21.907 16.7597 21.9449 16C22 14.8946 22 13.5796 22 12C22 7.286 22 4.93 20.535 3.464C19.071 2 16.714 2 12 2C9.33459 2 7.42305 2 6 2.26464M18 21.7353C17.4204 21.8431 16.7597 21.907 16 21.9449C14.8945 22 13.5795 22 12 22C7.286 22 4.929 22 3.464 20.535C2 19.072 2 16.714 2 12C2 9.33486 2 7.4231 2.26457 6" stroke="black" stroke-width="1.5" stroke-linecap="round"/>
</svg>
