<svg width="20" height="20" viewBox="0 0 20 20" fill="none" xmlns="http://www.w3.org/2000/svg">
<path d="M7.50009 10C3.75008 10 2.91675 12.5 1.66675 12.5" stroke="white" stroke-linecap="round" stroke-linejoin="round"/>
<path d="M7.5 10C11.25 10 12.2751 12.5 14.5833 12.5" stroke="white" stroke-linecap="round" stroke-linejoin="round"/>
<path d="M18.3333 11.25C13.9583 11.25 13.75 15 11.25 15" stroke="white" stroke-linecap="round" stroke-linejoin="round"/>
<path d="M13.7501 8.7502C15.1309 8.7502 16.2502 7.63087 16.2502 6.2501C16.2502 4.86933 15.1309 3.75 13.7501 3.75C12.3693 3.75 11.25 4.86933 11.25 6.2501C11.25 7.63087 12.3693 8.7502 13.7501 8.7502Z" stroke="white" stroke-linecap="round" stroke-linejoin="round"/>
<path d="M18.1128 15C18.2026 14.517 18.2559 13.9664 18.2875 13.3334C18.3334 12.4122 18.3334 11.3164 18.3334 10C18.3334 6.07169 18.3334 4.10835 17.1126 2.88669C15.8926 1.66669 13.9284 1.66669 10.0001 1.66669C7.77891 1.66669 6.18596 1.66669 5.00008 1.88722M15.0001 18.1128C14.5171 18.2026 13.9665 18.2559 13.3334 18.2874C12.4122 18.3334 11.3164 18.3334 10.0001 18.3334C6.07175 18.3334 4.10758 18.3334 2.88675 17.1125C1.66675 15.8934 1.66675 13.9284 1.66675 10C1.66675 7.77907 1.66675 6.18594 1.88722 5.00002" stroke="white" stroke-linecap="round"/>
</svg>
