<svg width="24" height="24" viewBox="0 0 24 24" fill="none" xmlns="http://www.w3.org/2000/svg">
<path d="M7.04281 19.8363C6.84943 19.8403 6.70881 19.6539 6.76584 19.469C6.79952 19.3599 6.89535 19.2816 7.00901 19.2704L7.27142 19.2445C7.8 19.1852 8.22142 19.0815 8.53571 18.9334C8.85 18.7852 9.11428 18.5408 9.32856 18.2C9.54285 17.8593 9.75 17.3778 9.94999 16.7556L13.3786 5.91113C13.4357 5.71853 13.4643 5.52595 13.4643 5.33335C13.4643 5.06669 13.35 4.88151 13.1214 4.7778C12.8928 4.67409 12.4857 4.59262 11.9 4.53335C11.6888 4.5103 11.551 4.30053 11.6136 4.09755L11.6236 4.06524C11.6477 3.98717 11.7206 3.93453 11.8023 3.93623L14.8571 4.00002L17.7534 3.93954C17.8994 3.93649 18.0056 4.07729 17.9625 4.21687C17.9116 4.38169 17.7669 4.49994 17.5952 4.51689L17.4286 4.53335C16.9143 4.5778 16.4928 4.67409 16.1643 4.82224C15.85 4.9704 15.5857 5.21484 15.3714 5.55557C15.1571 5.89631 14.9429 6.39262 14.7286 7.04446L11.3857 17.6445C11.3429 17.8074 11.3071 17.9556 11.2786 18.0889C11.25 18.2222 11.2357 18.3408 11.2357 18.4445C11.2357 18.7111 11.35 18.8963 11.5786 19C11.8071 19.1037 12.2143 19.1852 12.8 19.2445L12.8509 19.25C13.0357 19.2702 13.1563 19.4537 13.1015 19.6313C13.0626 19.7575 12.9447 19.8426 12.8127 19.8398L9.84285 19.7778L7.04281 19.8363Z" fill="black"/>
</svg>
