<svg width="20" height="20" viewBox="0 0 20 20" fill="none" xmlns="http://www.w3.org/2000/svg">
<path d="M5.8691 16.5302C5.70794 16.5336 5.59076 16.3782 5.63829 16.2242C5.66635 16.1332 5.74622 16.068 5.84093 16.0586L6.05961 16.037C6.50009 15.9876 6.85127 15.9012 7.11318 15.7778C7.37509 15.6543 7.59532 15.4506 7.77389 15.1667C7.95246 14.8827 8.12509 14.4815 8.29175 13.963L11.1489 4.92592C11.1965 4.76542 11.2203 4.60494 11.2203 4.44444C11.2203 4.22222 11.1251 4.0679 10.9346 3.98148C10.7441 3.89505 10.4048 3.82716 9.91675 3.77777C9.74078 3.75856 9.6259 3.58375 9.6781 3.41461L9.6864 3.38768C9.70648 3.32262 9.76725 3.27875 9.83532 3.28017L12.381 3.33333L14.7945 3.28293C14.9162 3.28039 15.0047 3.39772 14.9688 3.51403C14.9265 3.65139 14.8058 3.74993 14.6628 3.76405L14.5239 3.77777C14.0953 3.81481 13.7441 3.89505 13.4703 4.01851C13.2084 4.14198 12.9882 4.34568 12.8096 4.62962C12.631 4.91357 12.4525 5.32716 12.2739 5.87037L9.48818 14.7037C9.45246 14.8395 9.42269 14.963 9.39889 15.0741C9.37509 15.1852 9.36318 15.2839 9.36318 15.3704C9.36318 15.5926 9.45841 15.7469 9.64889 15.8333C9.83937 15.9198 10.1787 15.9876 10.6667 16.037L10.7092 16.0417C10.8632 16.0585 10.9637 16.2114 10.918 16.3594C10.8855 16.4645 10.7873 16.5354 10.6773 16.5332L8.20246 16.4815L5.8691 16.5302Z" fill="white"/>
</svg>
