<svg width="20" height="20" viewBox="0 0 20 20" fill="none" xmlns="http://www.w3.org/2000/svg">
<path d="M12.6733 3.95002C13.7612 2.8841 15.3528 2.8619 16.2336 3.72499C17.1166 4.58956 17.0931 6.15291 16.0037 7.21882L14.1656 9.01977C14.0621 9.12461 14.0049 9.26493 14.0064 9.4105C14.0079 9.55606 14.068 9.69523 14.1736 9.79802C14.2792 9.90081 14.422 9.959 14.5712 9.96005C14.7204 9.96111 14.8641 9.90494 14.9712 9.80366L16.8101 8.00271C18.2599 6.58223 18.4419 4.31494 17.04 2.9411C15.6365 1.56651 13.3174 1.74565 11.8662 3.16613L8.18987 6.76877C6.74014 8.18924 6.55807 10.4565 7.96001 11.8296C8.01237 11.8828 8.07505 11.9252 8.14439 11.9544C8.21373 11.9837 8.28835 11.9992 8.36389 12C8.43943 12.0008 8.51437 11.9869 8.58436 11.9591C8.65434 11.9314 8.71796 11.8903 8.7715 11.8383C8.82504 11.7863 8.86744 11.7244 8.89621 11.6563C8.92498 11.5881 8.93956 11.5151 8.93909 11.4414C8.93861 11.3677 8.9231 11.2948 8.89346 11.227C8.86382 11.1592 8.82063 11.0978 8.76643 11.0465C7.88339 10.1819 7.90766 8.61857 8.99629 7.55266L12.6733 3.95002Z" fill="white"/>
<path d="M12.0401 8.16339C11.9334 8.05898 11.7887 8.00021 11.6377 8C11.4867 7.99979 11.3418 8.05816 11.2348 8.16228C11.1279 8.26639 11.0677 8.40771 11.0675 8.55515C11.0673 8.7026 11.1271 8.84409 11.2337 8.94849C12.1167 9.81359 12.0932 11.3771 11.0038 12.4444L7.32705 16.0485C6.23849 17.1151 4.64701 17.1373 3.76631 16.2737C2.88333 15.4086 2.9076 13.8443 3.99615 12.7777L5.83493 10.9757C5.88768 10.924 5.92948 10.8627 5.95795 10.7952C5.98642 10.7277 6.001 10.6554 6.00086 10.5825C6.00072 10.5095 5.98586 10.4373 5.95713 10.3699C5.9284 10.3025 5.88636 10.2413 5.83342 10.1898C5.78047 10.1383 5.71765 10.0975 5.64855 10.0697C5.57945 10.0419 5.50542 10.0277 5.43068 10.0278C5.35594 10.028 5.28196 10.0425 5.21297 10.0705C5.14398 10.0986 5.08132 10.1396 5.02857 10.1913L3.18979 11.9934C1.74016 13.4154 1.5581 15.6834 2.95994 17.058C4.3633 18.4342 6.68226 18.2542 8.13341 16.8329L11.8102 13.2281C13.2598 11.8075 13.4419 9.53732 12.0401 8.16339Z" fill="white"/>
</svg>
