<svg width="24" height="24" viewBox="0 0 24 24" fill="none" xmlns="http://www.w3.org/2000/svg">
<path d="M14.775 5.96042C15.8422 4.88882 17.4034 4.86649 18.2674 5.73419C19.1336 6.60338 19.1105 8.17506 18.0419 9.24666L16.2388 11.0572C16.1373 11.1626 16.0812 11.3037 16.0827 11.45C16.0842 11.5964 16.1431 11.7363 16.2467 11.8396C16.3503 11.943 16.4904 12.0015 16.6367 12.0025C16.7831 12.0036 16.924 11.9471 17.0291 11.8453L18.833 10.0347C20.2551 8.60667 20.4337 6.32729 19.0584 4.94612C17.6817 3.5642 15.4068 3.74429 13.9832 5.17235L10.377 8.7942C8.9549 10.2223 8.7763 12.5016 10.1515 13.8821C10.2029 13.9355 10.2644 13.9781 10.3324 14.0075C10.4004 14.0369 10.4736 14.0525 10.5477 14.0533C10.6218 14.0541 10.6953 14.0402 10.764 14.0123C10.8326 13.9844 10.895 13.9431 10.9475 13.8908C11.0001 13.8385 11.0417 13.7763 11.0699 13.7078C11.0981 13.6393 11.1124 13.5658 11.1119 13.4917C11.1115 13.4176 11.0963 13.3444 11.0672 13.2762C11.0381 13.208 10.9957 13.1464 10.9426 13.0947C10.0764 12.2256 10.1002 10.6539 11.1681 9.58228L14.775 5.96042Z" fill="black"/>
<path d="M13.8493 10.1173C13.7447 10.0124 13.6027 9.9534 13.4545 9.95319C13.3064 9.95298 13.1642 10.0116 13.0593 10.1162C12.9544 10.2208 12.8954 10.3628 12.8952 10.511C12.895 10.6591 12.9536 10.8013 13.0582 10.9062C13.9244 11.7753 13.9014 13.3463 12.8327 14.4186L9.22575 18.0397C8.15788 19.1113 6.59662 19.1337 5.73264 18.266C4.86643 17.3968 4.89024 15.8251 5.95812 14.7535L7.76198 12.9429C7.81373 12.891 7.85473 12.8294 7.88266 12.7616C7.91059 12.6938 7.9249 12.6212 7.92476 12.5479C7.92462 12.4745 7.91004 12.402 7.88186 12.3343C7.85367 12.2666 7.81243 12.2051 7.76049 12.1534C7.70855 12.1016 7.64693 12.0606 7.57914 12.0327C7.51135 12.0048 7.43872 11.9905 7.3654 11.9906C7.29209 11.9907 7.21951 12.0053 7.15183 12.0335C7.08415 12.0617 7.02268 12.1029 6.97093 12.1549L5.16707 13.9654C3.74497 15.3942 3.56637 17.6729 4.94159 19.054C6.3183 20.4367 8.59321 20.2559 10.0168 18.8278L13.6238 15.206C15.0459 13.7786 15.2245 11.4978 13.8493 10.1173Z" fill="black"/>
</svg>
