<svg width="24" height="24" viewBox="0 0 24 24" fill="none" xmlns="http://www.w3.org/2000/svg">
<path d="M8.19284 6.06601C8.29358 6.11359 8.3778 6.18439 8.43653 6.27086C8.49525 6.35734 8.52629 6.45624 8.52632 6.55705V10.0856H9.15789C9.3254 10.0856 9.48604 10.1443 9.60449 10.2488C9.72293 10.3533 9.78947 10.495 9.78947 10.6428C9.78947 10.7906 9.72293 10.9323 9.60449 11.0368C9.48604 11.1412 9.3254 11.1999 9.15789 11.1999H6.63158C6.46407 11.1999 6.30343 11.1412 6.18499 11.0368C6.06654 10.9323 6 10.7906 6 10.6428C6 10.495 6.06654 10.3533 6.18499 10.2488C6.30343 10.1443 6.46407 10.0856 6.63158 10.0856H7.26316V7.5978L6.98189 7.76346C6.84252 7.84349 6.67298 7.87179 6.51009 7.84223C6.3472 7.81267 6.2041 7.72763 6.11185 7.60556C6.0196 7.4835 5.98565 7.33426 6.01737 7.19025C6.04909 7.04624 6.14391 6.91908 6.28126 6.83636L7.54442 6.0935C7.63956 6.03758 7.75013 6.00548 7.86432 6.00064C7.97852 5.9958 8.09206 6.0184 8.19284 6.06601ZM9.78947 15.4714C9.78947 14.9484 9.56126 14.5161 9.18316 14.2189C8.82602 13.9453 8.36777 13.7963 7.89474 13.8C7.44421 13.8 6.97347 13.9322 6.60632 14.2197C6.22821 14.5161 6 14.9492 6 15.4714C6 15.6192 6.06654 15.7609 6.18499 15.8654C6.30343 15.9698 6.46407 16.0285 6.63158 16.0285C6.79908 16.0285 6.95973 15.9698 7.07817 15.8654C7.19662 15.7609 7.26316 15.6192 7.26316 15.4714C7.26316 15.2515 7.35074 15.1267 7.44589 15.0524C7.5717 14.9601 7.73112 14.911 7.89474 14.9143C8.07579 14.9143 8.23663 14.9677 8.34358 15.0517C8.43874 15.1267 8.52632 15.2508 8.52632 15.4714C8.52632 15.718 8.46821 15.828 8.34947 15.9595C8.272 16.0434 8.16758 16.1377 8.01011 16.2707L7.88632 16.3747C7.75832 16.4817 7.60842 16.6072 7.44842 16.7491L6.18526 17.8634C6.06679 17.9678 6.00015 18.1094 6 18.2571V18.4429C6 18.7504 6.28295 19 6.63158 19H9.36842C9.53593 19 9.69657 18.9413 9.81501 18.8368C9.93346 18.7323 10 18.5906 10 18.4429C10 18.2951 9.93346 18.1534 9.81501 18.0489C9.69657 17.9444 9.53593 17.8857 9.36842 17.8857H7.94526L8.34105 17.5366C8.48926 17.4058 8.62147 17.2959 8.74526 17.1911L8.88421 17.0752C9.04487 16.9439 9.19565 16.8034 9.33558 16.6548C9.63705 16.3227 9.78947 15.9676 9.78947 15.4714Z" fill="black"/>
<path d="M13 9H18M13 16H18" stroke="black" stroke-width="1.5" stroke-linecap="round"/>
<path d="M21.7352 18C21.8431 17.4204 21.907 16.7597 21.9449 16C22 14.8946 22 13.5796 22 12C22 7.286 22 4.93 20.535 3.464C19.071 2 16.714 2 12 2C9.33459 2 7.42305 2 6 2.26464M18 21.7353C17.4204 21.8431 16.7597 21.907 16 21.9449C14.8945 22 13.5795 22 12 22C7.286 22 4.929 22 3.464 20.535C2 19.072 2 16.714 2 12C2 9.33486 2 7.4231 2.26457 6" stroke="black" stroke-width="1.5" stroke-linecap="round"/>
</svg>
