<svg width="20" height="20" viewBox="0 0 20 20" fill="none" xmlns="http://www.w3.org/2000/svg">
<path d="M6.82737 5.05501C6.91132 5.09466 6.9815 5.15366 7.03044 5.22572C7.07938 5.29778 7.10524 5.3802 7.10526 5.46421V8.4047H7.63158C7.77117 8.4047 7.90504 8.45362 8.00374 8.54069C8.10244 8.62776 8.15789 8.74586 8.15789 8.86899C8.15789 8.99213 8.10244 9.11022 8.00374 9.1973C7.90504 9.28437 7.77117 9.33328 7.63158 9.33328H5.52632C5.38673 9.33328 5.25286 9.28437 5.15415 9.1973C5.05545 9.11022 5 8.99213 5 8.86899C5 8.74586 5.05545 8.62776 5.15415 8.54069C5.25286 8.45362 5.38673 8.4047 5.52632 8.4047H6.05263V6.3315L5.81825 6.46955C5.7021 6.53624 5.56082 6.55983 5.42508 6.53519C5.28933 6.51056 5.17008 6.43969 5.09321 6.33797C5.01634 6.23625 4.98804 6.11189 5.01448 5.99188C5.04091 5.87187 5.11993 5.7659 5.23439 5.69697L6.28702 5.07792C6.3663 5.03131 6.45844 5.00457 6.5536 5.00054C6.64876 4.9965 6.74338 5.01533 6.82737 5.05501ZM8.15789 12.8928C8.15789 12.457 7.96772 12.0967 7.65263 11.8491C7.35502 11.6211 6.97315 11.4969 6.57895 11.5C6.20351 11.5 5.81123 11.6102 5.50526 11.8497C5.19018 12.0967 5 12.4576 5 12.8928C5 13.016 5.05545 13.1341 5.15415 13.2211C5.25286 13.3082 5.38673 13.3571 5.52632 13.3571C5.6659 13.3571 5.79977 13.3082 5.89848 13.2211C5.99718 13.1341 6.05263 13.016 6.05263 12.8928C6.05263 12.7096 6.12561 12.6056 6.20491 12.5437C6.30975 12.4667 6.4426 12.4258 6.57895 12.4285C6.72982 12.4285 6.86386 12.4731 6.95298 12.5431C7.03228 12.6056 7.10526 12.709 7.10526 12.8928C7.10526 13.0984 7.05684 13.19 6.95789 13.2996C6.89333 13.3695 6.80632 13.4481 6.67509 13.5589L6.57193 13.6456C6.46526 13.7347 6.34035 13.8394 6.20702 13.9576L5.15439 14.8862C5.05565 14.9732 5.00012 15.0912 5 15.2143V15.369C5 15.6253 5.23579 15.8333 5.52632 15.8333H7.80702C7.94661 15.8333 8.08048 15.7844 8.17918 15.6973C8.27788 15.6103 8.33333 15.4922 8.33333 15.369C8.33333 15.2459 8.27788 15.1278 8.17918 15.0407C8.08048 14.9537 7.94661 14.9048 7.80702 14.9048H6.62105L6.95088 14.6138C7.07439 14.5048 7.18456 14.4132 7.28772 14.3259L7.40351 14.2294C7.53739 14.1199 7.66304 14.0029 7.77965 13.879C8.03088 13.6023 8.15789 13.3064 8.15789 12.8928Z" fill="white"/>
<path d="M10.8333 7.5H14.9999M10.8333 13.3333H14.9999" stroke="white" stroke-linecap="round"/>
<path d="M18.1128 15C18.2026 14.517 18.2559 13.9664 18.2875 13.3334C18.3334 12.4122 18.3334 11.3164 18.3334 10C18.3334 6.07169 18.3334 4.10835 17.1126 2.88669C15.8926 1.66669 13.9284 1.66669 10.0001 1.66669C7.77891 1.66669 6.18596 1.66669 5.00008 1.88722M15.0001 18.1128C14.5171 18.2026 13.9665 18.2559 13.3334 18.2874C12.4122 18.3334 11.3164 18.3334 10.0001 18.3334C6.07175 18.3334 4.10758 18.3334 2.88675 17.1125C1.66675 15.8934 1.66675 13.9284 1.66675 10C1.66675 7.77907 1.66675 6.18594 1.88722 5.00002" stroke="white" stroke-linecap="round"/>
</svg>
