<svg width="20" height="20" viewBox="0 0 20 20" fill="none" xmlns="http://www.w3.org/2000/svg">
<path d="M13.8768 2.87917L14.4177 2.33833C14.848 1.90813 15.4316 1.66649 16.04 1.66656C16.6485 1.66664 17.232 1.90843 17.6622 2.33875C18.0924 2.76906 18.3341 3.35265 18.334 3.96113C18.3339 4.5696 18.0921 5.15313 17.6618 5.58333L17.1202 6.12416C17.1202 6.12416 15.9718 6.05667 14.9585 5.0425C13.9443 4.02917 13.8768 2.88 13.8768 2.88L8.90599 7.85C8.56932 8.18666 8.40099 8.355 8.25599 8.54083C8.08515 8.75916 7.93932 8.99667 7.81932 9.2475C7.71849 9.46 7.64349 9.68583 7.49265 10.1375L7.01015 11.5833M7.01015 11.5833L6.69849 12.5183C6.66183 12.6274 6.65632 12.7445 6.68258 12.8565C6.70884 12.9685 6.76583 13.071 6.84713 13.1523C6.92844 13.2337 7.03083 13.2908 7.14281 13.3172C7.25479 13.3436 7.3719 13.3382 7.48099 13.3017L8.41682 12.99M7.01015 11.5833L8.41682 12.99M17.121 6.12333L14.6352 8.60833M12.1502 11.0942C11.8135 11.4308 11.6452 11.5992 11.4593 11.7442C11.2403 11.9149 11.0034 12.0614 10.7527 12.1808C10.5402 12.2817 10.3143 12.3567 9.86265 12.5075L8.41682 12.99" stroke="white" stroke-width="1.5" stroke-linecap="round"/>
<path d="M18.9584 10C18.9584 9.83426 18.8926 9.67529 18.7754 9.55808C18.6582 9.44087 18.4992 9.37502 18.3334 9.37502C18.1677 9.37502 18.0087 9.44087 17.8915 9.55808C17.7743 9.67529 17.7084 9.83426 17.7084 10H18.9584ZM10.0001 2.29169C10.1659 2.29169 10.3248 2.22584 10.442 2.10863C10.5592 1.99142 10.6251 1.83245 10.6251 1.66669C10.6251 1.50093 10.5592 1.34196 10.442 1.22475C10.3248 1.10754 10.1659 1.04169 10.0001 1.04169V2.29169ZM6.14676 16.6775C6.07573 16.6364 5.9973 16.6096 5.91594 16.5988C5.83458 16.5879 5.75187 16.5932 5.67256 16.6144C5.59324 16.6355 5.51886 16.672 5.45367 16.7219C5.38847 16.7718 5.33374 16.834 5.29259 16.905C5.25144 16.976 5.22469 17.0545 5.21385 17.1358C5.20302 17.2172 5.20831 17.2999 5.22944 17.3792C5.25056 17.4585 5.2871 17.5329 5.33697 17.5981C5.38684 17.6633 5.44907 17.718 5.52009 17.7592L6.14676 16.6775ZM2.24092 14.4792C2.28036 14.5532 2.3343 14.6186 2.39953 14.6714C2.46476 14.7241 2.53994 14.7632 2.6206 14.7863C2.70126 14.8094 2.78574 14.816 2.86901 14.8057C2.95228 14.7955 3.03263 14.7685 3.10527 14.7266C3.17791 14.6846 3.24136 14.6284 3.29183 14.5614C3.3423 14.4944 3.37877 14.4179 3.39905 14.3365C3.41933 14.2551 3.42301 14.1704 3.40987 14.0876C3.39674 14.0047 3.36705 13.9253 3.32259 13.8542L2.24092 14.4792ZM17.7084 10C17.7084 12.0444 16.8963 14.005 15.4507 15.4506C14.0051 16.8962 12.0445 17.7084 10.0001 17.7084V18.9584C14.9476 18.9584 18.9584 14.9475 18.9584 10H17.7084ZM10.0001 1.04169C5.05259 1.04169 1.04176 5.05252 1.04176 10H2.29176C2.29176 7.95564 3.10388 5.995 4.54948 4.54941C5.99507 3.10381 7.95571 2.29169 10.0001 2.29169V1.04169ZM5.52009 17.7592C6.88157 18.5469 8.42715 18.9606 10.0001 18.9584V17.7084C8.64721 17.7106 7.31781 17.355 6.14676 16.6775L5.52009 17.7592ZM1.04176 10C1.03948 11.5727 1.45319 13.118 2.24092 14.4792L3.32259 13.8542C2.64501 12.6829 2.28937 11.3532 2.29176 10H1.04176Z" fill="white"/>
</svg>
