<svg width="20" height="20" viewBox="0 0 20 20" fill="none" xmlns="http://www.w3.org/2000/svg">
<g clip-path="url(#clip0_72_358)">
<path d="M11.4176 11.0119C11.6938 11.0119 11.9176 11.2358 11.9176 11.5119V12.2294C11.9176 12.5992 11.8511 12.9938 11.7179 13.4132C11.5892 13.828 11.3983 14.2316 11.1453 14.6239C10.9712 14.8954 10.7711 15.1427 10.5448 15.3655C10.3751 15.5327 10.1076 15.5295 9.9239 15.3778L9.74101 15.2269C9.54098 15.0618 9.5018 14.7719 9.63786 14.5511C9.81419 14.265 9.97264 13.9713 10.1132 13.6702C10.3218 13.2283 10.4262 12.757 10.4262 12.2565V11.5119C10.4262 11.2358 10.65 11.0119 10.9262 11.0119H11.4176ZM14.8267 11.0119C15.1029 11.0119 15.3267 11.2358 15.3267 11.5119V12.2294C15.3267 12.5992 15.2601 12.9938 15.127 13.4132C14.9982 13.828 14.8074 14.2316 14.5544 14.6239C14.3803 14.8954 14.1802 15.1427 13.9539 15.3655C13.7842 15.5327 13.5167 15.5295 13.333 15.3778L13.1501 15.2269C12.9501 15.0618 12.9109 14.7719 13.0469 14.5511C13.2233 14.265 13.3817 13.9713 13.5223 13.6702C13.7309 13.2283 13.8353 12.757 13.8353 12.2565V11.5119C13.8353 11.2358 14.0591 11.0119 14.3353 11.0119H14.8267Z" fill="white"/>
<path d="M4.66675 9.62662C4.39061 9.62662 4.16675 9.40277 4.16675 9.12662V8.4091C4.16675 8.03933 4.23111 7.647 4.35984 7.23215C4.49301 6.81278 4.68388 6.40918 4.93246 6.02137C5.10977 5.74644 5.31216 5.49698 5.53961 5.27299C5.7093 5.10587 5.97681 5.10907 6.16049 5.26068L6.34338 5.41164C6.54341 5.57674 6.58264 5.86662 6.44636 6.0873C6.26888 6.37467 6.10826 6.67061 5.96451 6.9751C5.76032 7.41251 5.65823 7.8815 5.65823 8.38203V9.12662C5.65823 9.40277 5.43437 9.62662 5.15823 9.62662H4.66675ZM8.07584 9.62662C7.7997 9.62662 7.57585 9.40277 7.57585 9.12662V8.4091C7.57585 8.03933 7.64019 7.647 7.76893 7.23215C7.90209 6.81278 8.09297 6.40918 8.34156 6.02137C8.51887 5.74644 8.72125 5.49698 8.94869 5.27299C9.11839 5.10587 9.38589 5.10907 9.56957 5.26068L9.75247 5.41164C9.9525 5.57674 9.99173 5.86662 9.85544 6.0873C9.67797 6.37467 9.51735 6.67061 9.37359 6.9751C9.16941 7.41251 9.06731 7.8815 9.06731 8.38203V9.12662C9.06731 9.40277 8.84346 9.62662 8.56731 9.62662H8.07584Z" fill="white"/>
<path d="M18.1128 15C18.2026 14.517 18.2559 13.9664 18.2875 13.3334C18.3334 12.4122 18.3334 11.3164 18.3334 10C18.3334 6.07169 18.3334 4.10835 17.1126 2.88669C15.8926 1.66669 13.9284 1.66669 10.0001 1.66669C7.77891 1.66669 6.18596 1.66669 5.00008 1.88722M15.0001 18.1128C14.5171 18.2026 13.9665 18.2559 13.3334 18.2874C12.4122 18.3334 11.3164 18.3334 10.0001 18.3334C6.07175 18.3334 4.10758 18.3334 2.88675 17.1125C1.66675 15.8934 1.66675 13.9284 1.66675 10C1.66675 7.77907 1.66675 6.18594 1.88722 5.00002" stroke="white" stroke-linecap="round"/>
</g>
<defs>
<clipPath id="clip0_72_358">
<rect width="20" height="20" fill="white"/>
</clipPath>
</defs>
</svg>
