<svg width="24" height="24" viewBox="0 0 24 24" fill="none" xmlns="http://www.w3.org/2000/svg">
<path d="M13.8011 13.2143C14.0773 13.2143 14.3011 13.4382 14.3011 13.7143V14.6753C14.3011 15.1191 14.2212 15.5926 14.0614 16.0958C13.907 16.5936 13.6779 17.0779 13.3743 17.5487C13.1505 17.8979 12.8907 18.2135 12.5949 18.4957C12.4226 18.6601 12.1555 18.6572 11.9718 18.5056L11.6185 18.2139C11.4185 18.0488 11.379 17.7588 11.517 17.5392C11.7481 17.1713 11.9544 16.7929 12.1358 16.4042C12.3862 15.8739 12.5114 15.3085 12.5114 14.7078V13.7143C12.5114 13.4382 12.7352 13.2143 13.0114 13.2143H13.8011ZM17.892 13.2143C18.1682 13.2143 18.392 13.4382 18.392 13.7143V14.6753C18.392 15.1191 18.3121 15.5926 18.1524 16.0958C17.9979 16.5936 17.7688 17.0779 17.4652 17.5487C17.2414 17.8979 16.9816 18.2135 16.6858 18.4957C16.5135 18.6601 16.2464 18.6572 16.0627 18.5056L15.7094 18.2139C15.5094 18.0488 15.4699 17.7588 15.6079 17.5392C15.839 17.1713 16.0453 16.7929 16.2268 16.4042C16.4771 15.8739 16.6023 15.3085 16.6023 14.7078V13.7143C16.6023 13.4382 16.8261 13.2143 17.1023 13.2143H17.892Z" fill="black"/>
<path d="M5.5 11.5519C5.22386 11.5519 5 11.3281 5 11.0519V10.0909C5 9.64719 5.07724 9.1764 5.23171 8.67858C5.39151 8.17533 5.62056 7.69101 5.91886 7.22564C6.1468 6.87222 6.40926 6.55387 6.70624 6.27058C6.87858 6.1062 7.14564 6.10907 7.32932 6.26068L7.68267 6.55233C7.8827 6.71743 7.92217 7.00743 7.78403 7.22695C7.55173 7.59613 7.34282 7.97719 7.15731 8.37012C6.91229 8.89501 6.78977 9.4578 6.78977 10.0584V11.0519C6.78977 11.3281 6.56592 11.5519 6.28977 11.5519H5.5ZM9.59092 11.5519C9.31477 11.5519 9.09092 11.3281 9.09092 11.0519V10.0909C9.09092 9.64719 9.16814 9.1764 9.32262 8.67858C9.48242 8.17533 9.71147 7.69101 10.0098 7.22564C10.2377 6.87222 10.5002 6.55387 10.7971 6.27058C10.9695 6.1062 11.2365 6.10907 11.4202 6.26068L11.7736 6.55233C11.9736 6.71743 12.0131 7.00743 11.8749 7.22695C11.6426 7.59613 11.4337 7.97719 11.2482 8.37012C11.0032 8.89501 10.8807 9.4578 10.8807 10.0584V11.0519C10.8807 11.3281 10.6568 11.5519 10.3807 11.5519H9.59092Z" fill="black"/>
<path d="M21.7352 18C21.8431 17.4204 21.907 16.7597 21.9449 16C22 14.8946 22 13.5796 22 12C22 7.286 22 4.93 20.535 3.464C19.071 2 16.714 2 12 2C9.33459 2 7.42305 2 6 2.26464M18 21.7353C17.4204 21.8431 16.7597 21.907 16 21.9449C14.8945 22 13.5795 22 12 22C7.286 22 4.929 22 3.464 20.535C2 19.072 2 16.714 2 12C2 9.33486 2 7.4231 2.26457 6" stroke="black" stroke-width="1.5" stroke-linecap="round"/>
</svg>
