<svg width="20" height="20" viewBox="0 0 20 20" fill="none" xmlns="http://www.w3.org/2000/svg">
<path d="M2 10H18" stroke="white" stroke-linecap="round"/>
<path d="M6.90654 7.91664C6.79159 7.91664 6.68134 7.86637 6.61373 7.77341C6.24445 7.26563 6.0538 6.64758 6.0751 6.01663C6.06206 5.36263 6.24175 4.71925 6.59176 4.16664C6.94785 3.64273 7.43675 3.22285 8.00843 2.94997C8.62805 2.64646 9.31017 2.49234 10.0001 2.49997C10.6952 2.48457 11.3839 2.63603 12.0084 2.94163C12.5668 3.22158 13.0411 3.6442 13.3834 4.16664C13.6225 4.5276 13.7868 4.93279 13.8668 5.3583C13.8789 5.43218 13.8737 5.50786 13.8516 5.57939C13.8295 5.65091 13.791 5.71632 13.7393 5.77046C13.6876 5.82459 13.624 5.86598 13.5536 5.89134C13.4831 5.91671 13.4078 5.92537 13.3334 5.91664C13.1945 5.91098 13.0613 5.85978 12.9544 5.77093C12.8475 5.68207 12.7727 5.5605 12.7418 5.42497C12.6294 4.9335 12.3603 4.49186 11.9751 4.16664C11.407 3.74146 10.709 3.52647 10.0001 3.5583C9.48629 3.5506 8.97707 3.65586 8.50843 3.86663C8.10736 4.05124 7.76233 4.33876 7.50843 4.69997C7.2669 5.06843 7.14202 5.50114 7.1501 5.94164C7.14075 6.25192 7.21256 6.55928 7.35843 6.8333C7.49143 7.09266 7.67907 7.3201 7.90843 7.49997C8.05799 7.6144 7.96947 7.91664 7.78116 7.91664H6.90654Z" fill="white"/>
<path d="M12.025 10C12.39 10.173 12.7316 10.3914 13.0417 10.65C13.2503 10.8253 13.4352 11.027 13.5917 11.25C13.672 11.3846 13.7443 11.5237 13.8084 11.6667C14.0182 12.0969 14.1211 12.5715 14.1084 13.05C14.1112 13.7018 13.9306 14.3413 13.5872 14.8953C13.2439 15.4494 12.7516 15.8957 12.1667 16.1833C11.4667 16.5236 10.6947 16.6894 9.9167 16.6667C9.18194 16.6857 8.45246 16.5376 7.78337 16.2333C7.20523 15.9592 6.71263 15.5328 6.35837 15C6.11719 14.6394 5.94223 14.2387 5.8417 13.8167C5.82778 13.7412 5.8311 13.6637 5.85142 13.5897C5.87173 13.5158 5.90852 13.4474 5.95903 13.3896C6.00953 13.3319 6.07244 13.2864 6.14304 13.2564C6.21364 13.2265 6.2901 13.2129 6.3667 13.2167C6.51173 13.2239 6.65044 13.2782 6.76175 13.3715C6.87306 13.4648 6.95087 13.5918 6.98337 13.7333C7.05646 14.0153 7.18696 14.2791 7.3667 14.5083C7.64559 14.8757 8.01637 15.1632 8.4417 15.3417C8.90775 15.528 9.40654 15.6187 9.90837 15.6083C10.4612 15.6221 11.0103 15.514 11.5167 15.2917C11.9667 15.0875 12.3526 14.7649 12.6334 14.3583C12.9058 13.9551 13.0483 13.4782 13.0417 12.9917C13.0544 12.5996 12.9404 12.2139 12.7167 11.8917C12.5265 11.635 12.2889 11.4172 12.0167 11.25L11.8334 11.1417C11.4123 10.9226 10.9715 10.7441 10.5167 10.6083L9.07503 10.15L8.6417 10H12.025Z" fill="white"/>
<path d="M6.90654 7.91664C6.79159 7.91664 6.68134 7.86637 6.61373 7.77341C6.24445 7.26563 6.0538 6.64758 6.0751 6.01663C6.06206 5.36263 6.24175 4.71925 6.59176 4.16664C6.94785 3.64273 7.43675 3.22285 8.00843 2.94997C8.62805 2.64646 9.31017 2.49234 10.0001 2.49997C10.6952 2.48457 11.3839 2.63603 12.0084 2.94163C12.5668 3.22158 13.0411 3.6442 13.3834 4.16664C13.6225 4.5276 13.7868 4.93279 13.8668 5.3583C13.8789 5.43218 13.8737 5.50786 13.8516 5.57939C13.8295 5.65091 13.791 5.71632 13.7393 5.77046C13.6876 5.82459 13.624 5.86598 13.5536 5.89134C13.4831 5.91671 13.4078 5.92537 13.3334 5.91664C13.1945 5.91098 13.0613 5.85978 12.9544 5.77093C12.8475 5.68207 12.7727 5.5605 12.7418 5.42497C12.6294 4.9335 12.3603 4.49186 11.9751 4.16664C11.407 3.74146 10.709 3.52647 10.0001 3.5583C9.48629 3.5506 8.97707 3.65586 8.50843 3.86663C8.10736 4.05124 7.76233 4.33876 7.50843 4.69997C7.2669 5.06843 7.14202 5.50114 7.1501 5.94164C7.14075 6.25192 7.21256 6.55928 7.35843 6.8333C7.49143 7.09266 7.67907 7.3201 7.90843 7.49997C8.05799 7.6144 7.96947 7.91664 7.78116 7.91664H6.90654Z" fill="white"/>
</svg>
