<svg width="24" height="24" viewBox="0 0 24 24" fill="none" xmlns="http://www.w3.org/2000/svg">
<path d="M4 12H20" stroke="black" stroke-width="1.5" stroke-linecap="round"/>
<path d="M14.4301 12C14.868 12.2076 15.278 12.4696 15.6501 12.78C15.9004 12.9904 16.1223 13.2324 16.3101 13.5C16.4065 13.6615 16.4933 13.8284 16.5701 14C16.8219 14.5163 16.9454 15.0858 16.9301 15.66C16.9335 16.4422 16.7168 17.2095 16.3048 17.8744C15.8928 18.5393 15.3021 19.0749 14.6001 19.42C13.7601 19.8283 12.8337 20.0273 11.9001 20C11.0184 20.0229 10.143 19.8451 9.34014 19.48C8.64638 19.151 8.05525 18.6394 7.63014 18C7.34073 17.5673 7.13077 17.0864 7.01014 16.58C6.99343 16.4895 6.99742 16.3964 7.0218 16.3076C7.04618 16.2189 7.09033 16.1368 7.15093 16.0676C7.21153 15.9983 7.28702 15.9437 7.37174 15.9077C7.45646 15.8718 7.54822 15.8555 7.64014 15.86C7.81418 15.8687 7.98063 15.9339 8.1142 16.0458C8.24777 16.1577 8.34114 16.3102 8.38014 16.48C8.46785 16.8183 8.62445 17.135 8.84014 17.41C9.17481 17.8509 9.61975 18.1958 10.1301 18.41C10.6894 18.6336 11.2879 18.7425 11.8901 18.73C12.5536 18.7466 13.2125 18.6168 13.8201 18.35C14.3601 18.1051 14.8233 17.7179 15.1601 17.23C15.4871 16.7462 15.6581 16.1739 15.6501 15.59C15.6654 15.1195 15.5286 14.6567 15.2601 14.27C15.0319 13.962 14.7468 13.7006 14.4201 13.5L14.2001 13.37C13.6949 13.1072 13.1659 12.8929 12.6201 12.73L10.8901 12.18L10.3701 12H14.4301Z" fill="black"/>
<path d="M8.28775 9.5C8.14981 9.5 8.01751 9.43968 7.93638 9.32813C7.49325 8.7188 7.26446 7.97713 7.29002 7.22C7.27438 6.43519 7.49 5.66313 7.91002 5C8.33732 4.37131 8.92401 3.86746 9.61002 3.54C10.3536 3.17579 11.1721 2.99085 12 3C12.8342 2.98152 13.6606 3.16327 14.41 3.53C15.08 3.86594 15.6493 4.37308 16.06 5C16.3469 5.43315 16.5441 5.91938 16.64 6.43C16.6546 6.51865 16.6483 6.60947 16.6218 6.6953C16.5953 6.78113 16.5491 6.85962 16.4871 6.92458C16.425 6.98955 16.3487 7.03921 16.2642 7.06965C16.1797 7.10009 16.0892 7.11048 16 7.1C15.8333 7.09322 15.6735 7.03178 15.5452 6.92515C15.4169 6.81852 15.3272 6.67264 15.29 6.51C15.1552 5.92023 14.8323 5.39027 14.37 5C13.6883 4.48979 12.8507 4.2318 12 4.27C11.3835 4.26075 10.7724 4.38706 10.21 4.64C9.72873 4.86152 9.3147 5.20655 9.01002 5.64C8.72018 6.08216 8.57033 6.6014 8.58002 7.13C8.5688 7.50235 8.65497 7.87117 8.83002 8.2C8.98962 8.51123 9.21479 8.78416 9.49002 9C9.66949 9.13731 9.56326 9.5 9.33729 9.5H8.28775Z" fill="black"/>
</svg>
