<svg width="24" height="24" viewBox="0 0 24 24" fill="none" xmlns="http://www.w3.org/2000/svg">
<path d="M15.0947 4H17V11.7637C17 12.5898 16.7931 13.3218 16.3792 13.9596C15.9654 14.5936 15.3835 15.0931 14.6337 15.4582C13.8838 15.8193 13.0049 16 11.9969 16C10.993 16 10.1162 15.8193 9.36632 15.4582C8.61647 15.0931 8.03462 14.5936 7.62077 13.9596C7.20692 13.3218 7 12.5898 7 11.7637V4H8.8992V11.6196C8.8992 12.1537 9.02418 12.6282 9.27412 13.0432C9.52817 13.4582 9.8867 13.7848 10.3497 14.023C10.8127 14.2574 11.3618 14.3746 11.9969 14.3746C12.6361 14.3746 13.1873 14.2574 13.6503 14.023C14.1174 13.7848 14.4739 13.4582 14.7197 13.0432C14.9697 12.6282 15.0947 12.1537 15.0947 11.6196V4Z" fill="black"/>
<path d="M5 19H19V20H5V19Z" fill="black"/>
</svg>
