<svg width="20" height="20" viewBox="0 0 20 20" fill="none" xmlns="http://www.w3.org/2000/svg">
<path d="M12.579 3.33331H14.1668V9.80303C14.1668 10.4915 13.9944 11.1015 13.6495 11.633C13.3046 12.1613 12.8198 12.5776 12.1949 12.8818C11.57 13.1828 10.8376 13.3333 9.9976 13.3333C9.16102 13.3333 8.4303 13.1828 7.80543 12.8818C7.18055 12.5776 6.69568 12.1613 6.35081 11.633C6.00593 11.1015 5.8335 10.4915 5.8335 9.80303V3.33331H7.41616V9.68295C7.41616 10.128 7.52031 10.5235 7.72859 10.8693C7.94031 11.2151 8.23908 11.4873 8.62493 11.6858C9.01078 11.8812 9.46834 11.9788 9.9976 11.9788C10.5303 11.9788 10.9895 11.8812 11.3754 11.6858C11.7647 11.4873 12.0617 11.2151 12.2666 10.8693C12.4749 10.5235 12.579 10.128 12.579 9.68295V3.33331Z" fill="white"/>
<path d="M4.16675 15.8333H15.8334V16.6666H4.16675V15.8333Z" fill="white"/>
</svg>
